<?xml version="1.0" standalone="no"?>
<!DOCTYPE svg PUBLIC "-//W3C//DTD SVG 20010904//EN"
 "http://www.w3.org/TR/2001/REC-SVG-20010904/DTD/svg10.dtd">
<svg version="1.0" xmlns="http://www.w3.org/2000/svg"
 width="200.000000pt" height="200.000000pt" viewBox="0 0 200.000000 200.000000"
 preserveAspectRatio="xMidYMid meet">
<metadata>
Created by potrace 1.14, written by Peter Selinger 2001-2017
</metadata>
<g transform="translate(0.000000,200.000000) scale(0.100000,-0.100000)"
fill="#000000" stroke="none">
<path d="M885 1725 c-337 -52 -603 -347 -618 -687 -10 -218 62 -399 222 -558
146 -145 310 -213 511 -213 130 1 206 19 330 80 185 90 342 288 386 484 74
333 -86 673 -391 827 -128 65 -289 90 -440 67z m293 -303 c119 -38 205 -122
242 -241 77 -244 -84 -449 -405 -516 -81 -17 -302 -24 -344 -10 -23 7 -23 12
-24 171 0 300 126 540 316 600 60 18 146 17 215 -4z"/>
<path d="M1073 1288 c-6 -7 -23 -39 -38 -72 -26 -53 -34 -61 -93 -90 -36 -17
-65 -35 -65 -41 0 -5 29 -26 65 -45 60 -31 69 -40 94 -93 43 -89 48 -89 89 -7
34 68 39 73 99 100 35 15 67 33 70 39 4 6 -22 25 -64 46 -66 33 -72 39 -105
105 -19 39 -37 70 -39 70 -2 0 -8 -6 -13 -12z"/>
</g>
</svg>
